<svg xmlns="http://www.w3.org/2000/svg" viewBox="0 0 685.13 613.95"><defs><style>.cls-1,.cls-3,.cls-7{fill:#fff;}.cls-2{fill:#feef00;}.cls-3{font-size:130.43px;font-family:MyriadPro-Regular, Myriad Pro;}.cls-4{letter-spacing:0.01em;}.cls-5{letter-spacing:0.03em;}.cls-6{font-family:MyriadPro-Bold, Myriad Pro;font-weight:700;}.cls-7{opacity:0.75;font-size:65.21px;font-family:NotoSans, Noto Sans;}</style></defs><title>LOGO-SVG-BRANCO</title><g id="Camada_2" data-name="Camada 2"><g id="Camada_3" data-name="Camada 3"><g id="Camada_1_cópia_cópia_2" data-name="Camada 1 cópia cópia 2"><path class="cls-1" d="M424.65.07c-11.16,19.6-21.76,38.21-32.37,56.82s-21.06,37-31.66,55.4c-1.5,2.61-2.31,4.62-.33,7.67,8.36,12.89,16.35,26,24.72,39.46,18.15-31.51,36.09-62.65,54-93.79Q456.79,34.84,474.59,4C475.78,2,476.68,0,479.87,0c22.42.14,44.85.08,68.42.08-50.71,89.09-101,177.41-151.61,266.39-21.94-35-43.31-69.49-63.43-105.9L273,266.48c-12.46-20.18-24.43-39.71-36.6-59.12-1.75-2.78-.26-4.41.91-6.44Q294.26,102.31,351.15,3.67c1.47-2.55,3-3.69,6.13-3.67C379.31.14,401.34.07,424.65.07Z"/><path class="cls-2" d="M118,.21H303.55c1,2.1-.65,3.4-1.44,4.74q-44,74.25-88,148.44c-1.79,3-2.73,5.71-5.7.66Q163.76,78.32,118.87,2.72A16.53,16.53,0,0,1,118,.21Z"/></g><g id="Camada_1_cópia_cópia" data-name="Camada 1 cópia cópia"><text class="cls-3" transform="translate(0 470.71) scale(1.03 1)"><tspan class="cls-4">A</tspan><tspan class="cls-5" x="81.13" y="0">GÊNCIA</tspan><tspan x="521.58" y="0"> </tspan><tspan class="cls-6" x="549.23" y="0">W</tspan></text><text class="cls-7" transform="translate(77.53 588.29) scale(1.03 1)">Soluções digitais</text></g></g></g></svg>