<svg xmlns="http://www.w3.org/2000/svg" viewBox="0 0 64 64"><defs><style>.cls-1{fill:#f4ac32;}</style></defs><title>digital_marketing</title><g id="Camada_2" data-name="Camada 2"><g id="Camada_1-2" data-name="Camada 1"><g id="Digital_Marketing" data-name="Digital Marketing"><path class="cls-1" d="M44,47a3,3,0,0,0,3-3V34.62c3.56-1.78,4-1.8,4-2.62,0-4.11.18-4.53-.55-4.89L47,25.38V16a3,3,0,0,0-6-.36c-1.91,2.86-4.75,7.78-12,8.3A1,1,0,0,0,28,23H18a1,1,0,0,0-1,1s0,.08,0,.11A5,5,0,0,0,13,29v2a5,5,0,0,0,4,4.9A1,1,0,0,0,17.89,37h1.3L21.7,48.72A2.91,2.91,0,0,0,24.52,51h3.6a2.88,2.88,0,0,0,1.3-5.45c-.47-.25-.26.27-2.18-8.55H28a1,1,0,0,0,1-.94,13.79,13.79,0,0,1,10.62,6.15L41,44.36A3,3,0,0,0,44,47Zm5-18.38v2.76l-2,1V27.62ZM45,16V44a1,1,0,0,1-2,0V16a1,1,0,0,1,2,0ZM15,31V29a3,3,0,0,1,2-2.83v7.66A3,3,0,0,1,15,31Zm4-6h8V35H19Zm8,20.3c.37,2,2,1.77,2,2.82a.87.87,0,0,1-.86.88H24.52a.89.89,0,0,1-.86-.69L21.24,37h4ZM29,34V26a15.91,15.91,0,0,0,12-6.68V40.71A15.93,15.93,0,0,0,29,34Z"/><path class="cls-1" d="M63,0H1A1,1,0,0,0,0,1V63a1,1,0,0,0,1,1H63a1,1,0,0,0,1-1V1A1,1,0,0,0,63,0ZM2,2H62V8H2ZM2,62V10H62V62Z"/><path class="cls-1" d="M6,4A1,1,0,1,0,7,5,1,1,0,0,0,6,4Z"/><path class="cls-1" d="M11,4a1,1,0,1,0,1,1A1,1,0,0,0,11,4Z"/><path class="cls-1" d="M16,4a1,1,0,1,0,1,1A1,1,0,0,0,16,4Z"/><path class="cls-1" d="M10.55,56.17c-3.09-2.06-3.32-2.43-4-2.05S6,54.87,6,59a1,1,0,0,0,1,1c.41,0,.27,0,3.55-2.17a1,1,0,0,0,.27-1.39A.87.87,0,0,0,10.55,56.17ZM8,57.13c0-.33-.06-.3.2-.13Z"/><path class="cls-1" d="M57,56H41a1,1,0,0,0,0,2H57a1,1,0,0,0,0-2Z"/><path class="cls-1" d="M36,56H14a1,1,0,0,0,0,2H36a1,1,0,0,0,2,0V56a1,1,0,0,0-2,0Z"/></g></g></g></svg>