<svg xmlns="http://www.w3.org/2000/svg" viewBox="0 0 64 64"><defs><style>.cls-1{fill:#f4ac32;}</style></defs><title>hockey_stick_growth</title><g id="Camada_2" data-name="Camada 2"><g id="Camada_1-2" data-name="Camada 1"><g id="hockey_stick_growth" data-name="hockey stick growth"><path class="cls-1" d="M63,62H61V14a1,1,0,0,0-1-1H52a1,1,0,0,0-1,1V62H45V29a1,1,0,0,0-1-1H36a1,1,0,0,0-1,1V62H29V43a1,1,0,0,0-1-1H20a1,1,0,0,0-1,1V62H13V39a1,1,0,0,0-1-1H4a1,1,0,0,0-1,1V62H1a1,1,0,0,0,0,2H63a1,1,0,0,0,0-2ZM5,62V40h6V62Zm16,0V44h6V62Zm16,0V30h6V62Zm16,0V15h6V62Z"/><path class="cls-1" d="M10.5,28.66,21,31.29a3,3,0,0,0,6-.42,3.29,3.29,0,0,0-.24-1L38.54,19.6a3,3,0,0,0,4.2-3.8L53.3,5.9c2.05,2.41,2.09,2.64,2.7,2.64a1,1,0,0,0,1-.85c1.06-7,1.17-6.87.75-7.35S57.55,0,50.52.1a1,1,0,0,0-1,1,1,1,0,0,0,.24.64L52,4.37l-10.63,10a3,3,0,0,0-4.15,3.75L25.46,28.4a3,3,0,0,0-4,1L11,26.72a3,3,0,1,0-.47,1.94ZM55.83,2l-.48,3.2L52.67,2.07ZM41,17a1,1,0,1,1-1-1A1,1,0,0,1,41,17ZM24,30a1,1,0,1,1-1,1A1,1,0,0,1,24,30ZM8,26a1,1,0,1,1-1,1A1,1,0,0,1,8,26Z"/></g></g></g></svg>