<svg xmlns="http://www.w3.org/2000/svg" viewBox="0 0 59.19 46.56"><defs><style>.cls-1{fill:#4d4e50;}.cls-2{fill:#fff;}.cls-3{fill:#f4ac32;}.cls-4{fill:#c8c8c8;}.cls-5{fill:#ccc;}</style></defs><title>pc</title><g id="Camada_2" data-name="Camada 2"><g id="pc"><path class="cls-1" d="M1.66,39.48H57.53a1.66,1.66,0,0,0,1.66-1.66V1.66A1.66,1.66,0,0,0,57.53,0H1.66A1.66,1.66,0,0,0,0,1.66V37.82A1.66,1.66,0,0,0,1.66,39.48ZM3.72,3.61H55.47v29.8H3.72Z"/><path class="cls-1" d="M37.56,40.49c-.1-.17-.21-.27-.31-.27H21.94c-.1,0-.21.1-.31.27l-2.06,3.63c-.45.8-.49,2.44,0,2.44H39.66c.45,0,.41-1.64,0-2.44Z"/><path class="cls-2" d="M55.47,3.61H3.72v29.8H55.47ZM6,22.29H17.24V23.6H6Zm23.28,9.12H6v-6.6H29.23Zm0-7.81H18V22.29H29.24Zm12.83,7.23H30v-1H42.07Zm11.16-1.71H30v-1H53.23Zm0-1.7H30v-1H53.23Zm0-1.7H30v-1H53.23ZM30,23.6V22.29h11.3V23.6Zm23.3,0H42V22.29h11.3Zm0-2.4H6V6h47.3Z"/><rect class="cls-3" x="5.95" y="5.99" width="47.3" height="15.21"/><rect class="cls-4" x="5.95" y="22.29" width="11.3" height="1.31"/><rect class="cls-5" x="5.95" y="24.81" width="23.28" height="6.6"/><rect class="cls-4" x="17.95" y="22.29" width="11.3" height="1.31"/><rect class="cls-5" x="29.95" y="22.29" width="11.3" height="1.31"/><rect class="cls-3" x="29.95" y="24.73" width="23.28" height="0.99"/><rect class="cls-3" x="29.95" y="26.43" width="23.28" height="0.99"/><rect class="cls-3" x="29.95" y="28.13" width="23.28" height="0.99"/><rect class="cls-3" x="29.95" y="29.84" width="12.13" height="0.99"/><rect class="cls-5" x="41.95" y="22.29" width="11.3" height="1.31"/></g></g></svg>