<svg xmlns="http://www.w3.org/2000/svg" viewBox="0 0 30.2 50.74"><defs><style>.cls-1{fill:#4d4e50;}.cls-2{fill:#ccc;}.cls-3{fill:#fff;}.cls-4{fill:#f4ac32;}</style></defs><title>rocket</title><g id="Camada_2" data-name="Camada 2"><g id="rocket"><path class="cls-1" d="M16,.64A1.14,1.14,0,0,0,15.08,0a1.14,1.14,0,0,0-.93.64L10.27,7.15h9.62Z"/><path class="cls-1" d="M.14,34.5a.67.67,0,0,0-.11.37L0,49.65a.64.64,0,0,0,.49.63l.16,0A.65.65,0,0,0,1.22,50L7.43,39c.07.19.14.39.22.57,1.53,3.64,3.56,5.94,5.83,6.67L12,39.42a.61.61,0,0,1,0-.3l2.51-9.93a.64.64,0,0,1,.63-.49h0a.66.66,0,0,1,.63.5L18.15,39a.71.71,0,0,1,0,.29l-1.43,7c2.25-.75,4.27-3,5.79-6.66l.24-.62L29,50a.63.63,0,0,0,.56.33l.17,0a.62.62,0,0,0,.48-.63l0-14.78a.68.68,0,0,0-.12-.37l-4.48-6.6a.65.65,0,0,0-.5-.28c.07-1.09.11-2.19.11-3.32V23c0-1.94,0-3.78,0-5.54,0-.31,0-.58,0-.85A10.63,10.63,0,0,0,25,14.93a10.87,10.87,0,0,0-.28-1.21,10.11,10.11,0,0,0-2.69-4.37L22,9.3,20.27,7.53H9.88l-2,2-.08.09A10.18,10.18,0,0,0,5.4,13.72q-.08.27-.15.57A10.33,10.33,0,0,0,5,16.65c0,.1,0,.23,0,.36,0,.33,0,.7,0,1,0,1.35,0,2.65,0,4,0,.72,0,1.47,0,2.25,0,1.13,0,2.23.12,3.32a.64.64,0,0,0-.46.28ZM15.07,13.71a6.72,6.72,0,1,1-6.72,6.72A6.72,6.72,0,0,1,15.07,13.71Z"/><polygon class="cls-2" points="17.51 39.13 15.13 29.35 12.62 39.28 14.19 46.45 15.13 50.74 16.02 46.44 17.51 39.13"/><polygon class="cls-3" points="19.89 7.15 10.27 7.15 9.88 7.53 20.27 7.53 19.89 7.15"/><path class="cls-4" d="M15.07,25.84a5.41,5.41,0,1,0-5.42-5.41A5.42,5.42,0,0,0,15.07,25.84Zm2.85-7.06a.36.36,0,0,1,.06.51L14.27,24a.37.37,0,0,1-.28.14.35.35,0,0,1-.22-.08.34.34,0,0,1-.06-.5l3.71-4.67A.36.36,0,0,1,17.92,18.78ZM12.15,22l3.71-4.66a.35.35,0,0,1,.5-.06.34.34,0,0,1,.06.5L12.71,22.4a.34.34,0,0,1-.28.13.38.38,0,0,1-.22-.07A.37.37,0,0,1,12.15,22Z"/><path class="cls-2" d="M15.07,27.15a6.72,6.72,0,1,0-6.72-6.72A6.72,6.72,0,0,0,15.07,27.15Zm0-12.13a5.41,5.41,0,1,1-5.42,5.41A5.42,5.42,0,0,1,15.07,15Z"/><path class="cls-3" d="M12.43,22.53a.34.34,0,0,0,.28-.13l3.71-4.67a.34.34,0,0,0-.06-.5.35.35,0,0,0-.5.06L12.15,22a.37.37,0,0,0,.06.51A.38.38,0,0,0,12.43,22.53Z"/><path class="cls-3" d="M13.77,24a.35.35,0,0,0,.22.08.37.37,0,0,0,.28-.14L18,19.29a.36.36,0,1,0-.56-.45l-3.71,4.67A.34.34,0,0,0,13.77,24Z"/></g></g></svg>