<svg xmlns="http://www.w3.org/2000/svg" viewBox="0 0 37.87 47.69"><defs><style>.cls-1{fill:#4d4e50;}.cls-2{fill:#f4ac32;}</style></defs><title>share</title><g id="Camada_2" data-name="Camada 2"><g id="share"><path class="cls-1" d="M11.21,18A7.62,7.62,0,1,0,12.42,30.6l6,4.22L22.89,38a7.68,7.68,0,1,0,3.22-4.36l-6.48-4.6L15.16,25.9a8.25,8.25,0,0,0,.1-1.22,7.6,7.6,0,0,0-.47-2.62l4.84-3.44L26.11,14a7.61,7.61,0,1,0-3.22-4.36l-4.52,3.21ZM7.54,29.22a4.3,4.3,0,1,1,4.3-4.29A4.29,4.29,0,0,1,7.54,29.22Zm22.53,6.61a4.3,4.3,0,1,1-4.3,4.3A4.29,4.29,0,0,1,30.07,35.83Zm0-32.58a4.3,4.3,0,1,1-4.3,4.3A4.3,4.3,0,0,1,30.07,3.25Z"/><path class="cls-2" d="M30.07,44.42a4.3,4.3,0,1,0-4.3-4.29A4.29,4.29,0,0,0,30.07,44.42Z"/><path class="cls-2" d="M7.54,20.63a4.3,4.3,0,1,0,4.3,4.3A4.3,4.3,0,0,0,7.54,20.63Z"/><path class="cls-2" d="M30.07,11.84a4.3,4.3,0,1,0-4.3-4.29A4.29,4.29,0,0,0,30.07,11.84Z"/></g></g></svg>