<svg xmlns="http://www.w3.org/2000/svg" viewBox="0 0 34.85 54.35"><defs><style>.cls-1{fill:#f4ac32;}.cls-2{fill:#4d4e50;}.cls-3{fill:#ccc;}</style></defs><title>tools</title><g id="Camada_2" data-name="Camada 2"><g id="tools"><path class="cls-1" d="M10.4,54.35h2.71a3.57,3.57,0,0,0,3.45-2.67H7A3.57,3.57,0,0,0,10.4,54.35Z"/><path class="cls-2" d="M6.83,23.2V50.77a3.39,3.39,0,0,0,.12.91h9.61a3.39,3.39,0,0,0,.12-.91V23.2a11.74,11.74,0,0,0-.09-21.37V12.54H6.92V1.83A11.74,11.74,0,0,0,6.83,23.2Zm2.79.85H14V48.68a1,1,0,0,1-1,1H10.64a1,1,0,0,1-1-1Z"/><polygon class="cls-2" points="31.61 27.34 31.61 7.75 32.02 6.54 32.02 1.59 30.45 0.08 30.36 0 28.76 1.59 28.76 6.54 29.12 7.71 29.12 27.34 30.45 27.34 31.61 27.34"/><path class="cls-1" d="M27,44v7.36a3.17,3.17,0,0,0,3.33,3h.1a3.16,3.16,0,0,0,3.23-3V31.65h1.17V27.34h-9v4.31H27Zm5.22,6.14H31.08V31.84h1.16ZM28.45,31.84h1.16V50.15H28.45Z"/><path class="cls-3" d="M10.64,49.71H13a1,1,0,0,0,1-1V24.05H9.62V48.68A1,1,0,0,0,10.64,49.71Z"/><rect class="cls-2" x="28.45" y="31.84" width="1.16" height="18.31"/><rect class="cls-2" x="31.08" y="31.84" width="1.16" height="18.31"/></g></g></svg>